<svg xmlns="http://www.w3.org/2000/svg" width="77" height="30" fill="#000" fill-rule="nonzero" fill-opacity=".17"><path d="M35.2724 14.776c.02-.5888-.0157-1.0545-.0358-1.68a15.347 15.347 0 0 0-.9425-4.9254 10.924 10.924 0 0 0-2.5433-3.9336 12.721 12.721 0 0 0-4.0522-2.55A20.306 20.306 0 0 0 23.0597.3918L22.876.365C21.7813.2015 20.5455.018 17.6418 0 14.7313.018 13.5.2015 12.4075.365l-.1858.027a20.288 20.288 0 0 0-4.6388 1.2784 12.721 12.721 0 0 0-4.0522 2.55A10.867 10.867 0 0 0 .9873 8.1537a15.282 15.282 0 0 0-.9425 4.9254L0 14.776l.0448 1.9522a16.386 16.386 0 0 0 .9425 4.9254 10.867 10.867 0 0 0 2.5433 3.9336 12.721 12.721 0 0 0 4.0522 2.55 20.288 20.288 0 0 0 4.6366 1.2784l.1858.027c1.0925.1634 2.3306.347 5.2343.365 2.9104-.018 4.1396-.2015 5.2343-.365l.1836-.027a20.306 20.306 0 0 0 4.6388-1.2784 12.721 12.721 0 0 0 4.0522-2.55 10.925 10.925 0 0 0 2.5433-3.9336c.563-1.5843.8808-3.2452.9425-4.9254l.0358-1.96m-5.8724 1.04c-.0118 1.215-.1098 2.428-.2933 3.63a9.065 9.065 0 0 1-.9403 2.7425 6.623 6.623 0 0 1-2.5545 2.6015 10.462 10.462 0 0 1-3.2821 1.1866c-1.5424.3148-3.114.465-4.688.4478a22.222 22.222 0 0 1-4.6858-.4478 10.462 10.462 0 0 1-3.2821-1.1866 6.623 6.623 0 0 1-2.5545-2.6015 9.132 9.132 0 0 1-.9425-2.7425 26.033 26.033 0 0 1-.2933-3.6291l.03-1.7754a24.851 24.851 0 0 1 .2642-3.656 9.132 9.132 0 0 1 .9425-2.7425 6.623 6.623 0 0 1 2.5545-2.6015 10.462 10.462 0 0 1 3.2821-1.1955 22.228 22.228 0 0 1 4.6858-.4478c1.574-.0172 3.1456.133 4.688.4478a10.462 10.462 0 0 1 3.2821 1.1955 6.623 6.623 0 0 1 2.5545 2.6015 9.065 9.065 0 0 1 .9403 2.7425c.1798 1.2103.27 2.4324.2664 3.656l.03 1.7754m24.3922-6.7857v-.1657c-.0046-.168-.0387-.334-.1007-.4903a1.021 1.021 0 0 0-.2687-.3896 1.274 1.274 0 0 0-.4276-.253 2.129 2.129 0 0 0-.4881-.1276h-.02a4.292 4.292 0 0 0-1.106 0h-.02a2.129 2.129 0 0 0-.4881.1276 1.274 1.274 0 0 0-.4276.253 1.021 1.021 0 0 0-.2687.3896c-.062.1563-.096.3222-.1007.4903v.3604c.007.167.04.332.1007.488a1.048 1.048 0 0 0 .2687.3918c.1256.1102.2706.196.4276.253a2.239 2.239 0 0 0 .4881.1254h.02a4.03 4.03 0 0 0 1.106 0h.02a2.239 2.239 0 0 0 .4881-.1254c.157-.057.302-.1428.4276-.253a1.048 1.048 0 0 0 .2687-.3918 1.543 1.543 0 0 0 .1007-.488v-.1948m-.62.103a2.664 2.664 0 0 1-.0313.3604.898.898 0 0 1-.1007.271.683.683 0 0 1-.2687.2597 1.249 1.249 0 0 1-.347.1187 2.9 2.9 0 0 1-.9896 0 1.249 1.249 0 0 1-.347-.1187.683.683 0 0 1-.2687-.2597c-.0488-.084-.083-.1755-.1007-.27a2.686 2.686 0 0 1-.0314-.3604v-.177a2.383 2.383 0 0 1 .0269-.3627.852.852 0 0 1 .1007-.271.671.671 0 0 1 .2687-.2575c.112-.0588.2256-.0985.347-.1187a2.756 2.756 0 0 1 .9896 0c.1214.0202.2387.0603.347.1187s.205.148.2687.2575a.895.895 0 0 1 .1007.271 2.382 2.382 0 0 1 .0269.3627v.177M67.012 7.93a1.121 1.121 0 0 0-.3694-.206 2.129 2.129 0 0 0-.4881-.1276h-.02a3.43 3.43 0 0 0-.553-.0358 3.43 3.43 0 0 0-.553.0358h-.02c-.167.0233-.33.0662-.488.1276a1.274 1.274 0 0 0-.4276.253 1.048 1.048 0 0 0-.2687.3896 1.435 1.435 0 0 0-.1007.4881v.3627c.007.167.04.332.1007.488a1.053 1.053 0 0 0 .2687.3918c.1256.1102.2706.196.4276.253s.3212.1018.488.1254h.02a3.335 3.335 0 0 0 .553.038c.185.0026.37-.01.553-.038h.02a2.239 2.239 0 0 0 .4881-.1254 1.397 1.397 0 0 0 .3269-.1791c.0358-.0246.1052-.0716.0313-.1366s-.18-.206-.224-.2418a.096.096 0 0 0-.1388 0 .824.824 0 0 1-.2239.1679c-.1084.0584-.2256.0985-.347.1187a2.756 2.756 0 0 1-.9896 0 1.133 1.133 0 0 1-.3515-.1142.699.699 0 0 1-.2597-.224c-.0522-.0823-.0894-.1733-.1097-.2687a1.829 1.829 0 0 1-.0246-.3537v-.177a1.845 1.845 0 0 1 .0336-.3739.801.801 0 0 1 .121-.2664c.0668-.0828.15-.152.2418-.2037.108-.0593.2254-.0995.347-.1187a2.756 2.756 0 0 1 .9896 0c.1214.0202.2387.0603.347.1187a.658.658 0 0 1 .2239.1903.087.087 0 0 0 .0627.0265c.0237 0 .0462-.0096.0627-.0265.0224-.02.224-.2507.2373-.2642a.067.067 0 0 0 0-.103M48.318 10.5224a2.071 2.071 0 0 1-.6022-.0985c-.0906-.03-.1783-.0665-.262-.112l-.12-.076c-.085-.065-.0694-.0963-.0358-.1455s.1007-.1254.1142-.1433c.0302-.0494.0813-.0824.1388-.0896.047 0 .1858.123.2642.1657a1.641 1.641 0 0 0 .4478.1612 1.164 1.164 0 0 0 .4142-.0134c.0756-.025.1466-.062.2104-.1097a.448.448 0 0 0 .1321-.1545.414.414 0 0 0 .047-.1925.293.293 0 0 0-.1007-.2373c-.0848-.068-.18-.1217-.282-.16l-.394-.1254c-.145-.0385-.2867-.0895-.423-.1522a1.117 1.117 0 0 1-.3425-.2463c-.098-.1125-.1493-.2583-.1433-.4075-.0003-.1158.0306-.2295.0896-.33.0647-.1054.1538-.1937.2597-.2575a1.294 1.294 0 0 1 .3985-.1657 1.926 1.926 0 0 1 .5015-.0672 1.679 1.679 0 0 1 .4254.047 1.444 1.444 0 0 1 .3134.1142c.076.0403.18.085.13.1813-.0134.0224-.0896.1388-.1052.1567-.0514.0485-.1282.0584-.1903.0246a1.155 1.155 0 0 0-.4925-.2015 1.021 1.021 0 0 0-.3582.0179.609.609 0 0 0-.1858.0739c-.0502.033-.0917.0774-.12.13a.32.32 0 0 0-.0425.1657.294.294 0 0 0 .132.2306c.0838.07.1793.1246.282.1612a4.03 4.03 0 0 0 .3918.1254 2.814 2.814 0 0 1 .4209.1433 1.06 1.06 0 0 1 .3425.224c.0984.1035.1508.2424.1455.385a.732.732 0 0 1-.0963.3672.88.88 0 0 1-.2799.3045 1.735 1.735 0 0 1-.5015.2373c-.166.046-.3382.0663-.5104.0604m-9.0988-.3597a.114.114 0 0 0-.1209-.0761h-1.3164a.139.139 0 0 1-.15-.159V7.7284a.112.112 0 0 0-.0806-.1119h-.4478c-.0493.016-.082.0624-.0806.1142v2.485a.302.302 0 0 0 .047.1724.224.224 0 0 0 .1612.0918h.1993a.403.403 0 0 0 .0739 0h1.6075c.0425 0 .1075-.03.12-.076.0036-.04.0036-.0822 0-.123a.506.506 0 0 0 0-.123m22.343-2.546H58.92c-.085 0-.1164.0246-.1164.085v.224c0 .0604.0358.085.1007.085h1.0388v2.3418a.11.11 0 0 0 .0784.1142.817.817 0 0 0 .1321 0h.3246c.05-.0136.0835-.0603.0806-.112V8.006h1.0366c.065 0 .1007-.0246.1007-.085v-.224c0-.0336-.0313-.085-.1164-.085m14.8387 0H73.753c-.085 0-.1164.0246-.1164.085v.224c0 .0604.0358.085.1007.085h1.0388v2.3418a.11.11 0 0 0 .0784.1142.817.817 0 0 0 .1321 0h.3246a.112.112 0 0 0 .0806-.1119V8.006h1.0366c.065 0 .1007-.0246.1007-.085v-.224c0-.0336-.0313-.085-.1164-.085m-13.4082.17v-.0448a.114.114 0 0 0-.0806-.1142.607.607 0 0 0-.132 0h-.3224c-.0508.0138-.0846.0617-.0806.1142v2.6194a.112.112 0 0 0 .0806.1142c.044.0037.088.0037.132 0h.3224c.0504-.013.0844-.06.0806-.112V7.782m8.2343.233h1.7552a.121.121 0 0 0 .1209-.0761c.0036-.04.0036-.0822 0-.123a.506.506 0 0 0 0-.123.112.112 0 0 0-.1299-.0806h-1.5403a1.211 1.211 0 0 0-.132 0h-.094m.02 2.8677h1.7463c.0524.0056.102-.0247.12-.074.0037-.0417.0037-.0837 0-.1254.0047-.04.0047-.0822 0-.123-.0157-.0527-.066-.0872-.12-.0828h-1.7664m-.188-.8398h1.8358a.121.121 0 0 0 .1209-.0761 1.133 1.133 0 0 0 0-.2463.114.114 0 0 0-.1209-.0761h-1.8448"/><path d="M71.4045 7.782v-.0448a.112.112 0 0 0-.0806-.1142.6.6 0 0 0-.1299 0h-.3246a.112.112 0 0 0-.0806.1142v2.6194a.114.114 0 0 0 .0806.1142.817.817 0 0 0 .1321 0h.3224a.112.112 0 0 0 .0828-.1119V7.782m-1.1373 2.595c-.02-.0246-1.22-1.3007-1.4216-1.5022L70.2 7.7284c.0158-.02.0178-.048.005-.07a.063.063 0 0 0-.0632-.0307h-.356a.358.358 0 0 0-.2082.0381c-.0134 0-.8955.7343-1.294 1.0567v-.985c.0015-.0517-.0313-.0983-.0806-.1142a.62.62 0 0 0-.1321 0h-.3224a.114.114 0 0 0-.0828.1142v2.6194c-.004.0525.0298.1004.0806.1142.044.0037.088.0037.132 0h.3224c.05-.0136.0835-.0603.0806-.112v-1.001l.1612-.1455 1.1642 1.23a.17.17 0 0 0 .1343.0381h.4746a.065.065 0 0 0 .0582-.103m-27.5026-.0538l-1.2448-2.5164a.273.273 0 0 0-.2507-.1993h-.1925a.273.273 0 0 0-.2507.1993L39.57 10.332a.101.101 0 0 0 .0851.1456h.3493c.0764.0002.1438-.05.1657-.123 0-.0157.13-.282.3246-.7052l.027-.0515a.092.092 0 0 1 .0761-.056h1.1418a.092.092 0 0 1 .0761.056c.0134.0224.0246.0493.027.0515l.3246.7052a.172.172 0 0 0 .1657.123h.3493a.105.105 0 0 0 .0784-.1545M41.593 9.2328h-.8463c-.0336 0-.047-.02-.0336-.0493l.374-.815c.02-.038.0403-.1097.0828-.1097s.065.0716.0828.1097l.374.815c.0134.03 0 .0493-.0336.0493M46.856 7.65h-.3403a.121.121 0 0 0-.1231.0806c0 .03-.3313 1.3007-.5284 1.988L45.3 7.744a.141.141 0 0 0-.1545-.094h-.488c-.056-.0083-.1097.0247-.1276.0784 0 .0134-.4187 1.3433-.6 1.997l-.6716-1.9993c-.0224-.0336-.085-.076-.1903-.0784h-.2933c-.0963 0-.1567.027-.1366.103s.87 2.6127.8843 2.6485.038.074.123.074h.4478a.074.074 0 0 0 .0739-.056c.018-.0515.6246-2.2007.647-2.27l.7366 2.2522c.0134.0358.0537.074.1366.074h.44a.063.063 0 0 0 .0672-.038 496.683 496.683 0 0 0 .7769-2.597c.0358-.1254 0-.1903-.1052-.1925m10.5378.087a.121.121 0 0 0-.1299-.1254h-.365c-.094 0-.12.065-.12.1388v1.8403l-1.5672-1.8a.414.414 0 0 0-.3201-.1813h-.4075c-.1522 0-.1858.0806-.1858.168v2.57a.141.141 0 0 0 .0918.1254.526.526 0 0 0 .1209 0h.3112a.139.139 0 0 0 .094-.1254V8.2097l1.762 2.073c.0873.103.16.2015.262.2015h.374c.0515 0 .0828-.047.0828-.1187V7.7328M43.012 20.456c-.0722-.22-.2852-.3648-.5172-.3493h-5.7806c-.2316-.0172-.4454.1247-.5194.3448a2.989 2.989 0 0 0-.0358.5664 2.953 2.953 0 0 0 .0358.5642c.076.2192.2905.3592.5216.3403h2.8903l2.8858.018c.2316.0172.4454-.1247.5194-.3448a2.823 2.823 0 0 0 .0336-.5664 2.792 2.792 0 0 0-.0336-.5642m17.1135-1.1732c-.073-.2214-.2868-.365-.5194-.3493h-4.7015c-.4993 0-.6358-.0918-.6358-.4478V16.126c-.038-.3403-.3112-.4478-.544-.4858l3.188-.224c.2754-.0358.524-.1746.5687-.3873a2.767 2.767 0 0 0 0-.5642 1.55 1.55 0 0 0-.1052-.61c-.1724-.273-.4478-.2978-1.0993-.2575-.1813 0-2.1.1858-3.4366.2933l-4.6075.4097c-.48.047-.7813.103-.824.42a3.459 3.459 0 0 0 0 .544c0 .1478.047.524.2082.6716s.4478.132.7746.1254c.4925 0 2.7694-.224 2.9776-.224s.3067.1746.3.4276v2.2007c0 .4478-.3067.468-.73.468H45.388a.508.508 0 0 0-.5194.347 2.953 2.953 0 0 0-.0358.5642 3 3 0 0 0 .0336.5664c.0737.2196.286.362.5172.347l4.8336-.0157c.3067 0 1.276-.103 1.3254.5373.0084.56-.0305 1.1177-.1164 1.67a4.217 4.217 0 0 1-.4276 1.2448 3.152 3.152 0 0 1-1.0746 1.247 4.551 4.551 0 0 1-1.473.6134 8.043 8.043 0 0 1-1.3075.188c-.2373 0-.224.1634-.1948.2642 0 .047.1343.5955.2037.815a.358.358 0 0 0 .2978.2619c.472.0094.9442-.0153 1.4127-.074.67-.1 1.3262-.2715 1.9478-.5396a6.468 6.468 0 0 0 1.8157-1.2269 4.952 4.952 0 0 0 1.153-1.791 6.452 6.452 0 0 0 .4478-2.2164c0-.0403.03-.3985.0425-.647.0157-.3.4813-.3313.76-.3224h4.556c.2317.0153.445-.127.5194-.347a2.953 2.953 0 0 0 .0358-.5642c.0075-.1916-.003-.3835-.0313-.573M76.5 15.797c-.056-.2104-.224-.3022-.5104-.3246.1075 0-6.8485 0-9.1993 0-.33 0-.5463-.1567-.5552-.412l.0403-1.1978c0-.2776-.1948-.356-.4925-.3627s-1.2358 0-1.323 0c-.3022 0-.4657.1433-.47.3784l-.0134.4478-.0627 2.2746a5.917 5.917 0 0 1-.4478 1.79c-.2418.57-.5562 1.1032-.9224 1.6007a6.542 6.542 0 0 1-.6716.7455c-.197.1948-.1948.376-.0313.5284.3493.3336.5843.488.7903.6716a.414.414 0 0 0 .5955.0381 5.738 5.738 0 0 0 .909-1.0299 10.142 10.142 0 0 0 .8619-1.3679l.8552-1.8c.244-.4612.6112-.515 1.38-.497h2.9104c.7634 0 1.0388.4478 1.03.7858l-.03 1.5448-.0604 1.6858-.253 1.7127c-.0832.433-.2343.85-.4478 1.2358-.2505.4997-.63.9232-1.0993 1.227a4.661 4.661 0 0 1-1.4866.5821c-.4316.0883-.8696.1414-1.3097.16-.2396 0-.224.1612-.2015.262 0 .047.123.5978.188.8194a.363.363 0 0 0 .29.2687 10.003 10.003 0 0 0 1.4149-.0448c.6727-.0775 1.3318-.2462 1.96-.5015a6.405 6.405 0 0 0 1.8403-1.1888 4.952 4.952 0 0 0 1.1888-1.7597 7.793 7.793 0 0 0 .4903-2.212c0-.0403.038-.3985.056-.6448.0224-.3.0246-1.527.038-2.0642v-.4478c0-.4948-.0112-1.4216.468-1.4216h1.7127c.28 0 .5328-.0985.5485-.3582v-1.1194"/></svg>